<svg width="20" height="20" viewBox="0 0 20 20" fill="none" xmlns="http://www.w3.org/2000/svg">
<circle cx="10" cy="10" r="9" fill="#020210" stroke="#262634"/>
<path fill-rule="evenodd" clip-rule="evenodd" d="M7.1602 5.74072C4.97407 7.17867 4.283 10.0961 5.63042 12.3713C6.85847 14.445 9.36833 15.2902 11.5536 14.4957C11.4824 14.4014 11.4125 14.3053 11.344 14.2085C10.9176 13.6052 10.4911 12.8893 10.1057 12.1905C9.33397 10.7915 8.70061 9.41289 8.5288 9.03305L8.2739 8.46951L8.35686 8.42447C8.17335 8.32826 7.90553 8.16513 7.68088 7.95636C7.56153 7.84545 7.42503 7.69491 7.32943 7.50701C7.23026 7.31209 7.15817 7.03912 7.24763 6.73721L7.25304 6.71893L7.27519 6.64417C7.34837 6.35886 7.31675 6.05667 7.1859 5.7926L7.1602 5.74072ZM12.7791 13.8432C12.6535 13.9345 12.5225 14.0208 12.3862 14.1016C12.3177 14.1421 12.2486 14.1809 12.179 14.2177C10.8798 12.5601 9.4089 9.36494 9.13479 8.75894L9.14576 8.75298C9.56087 9.03565 10.0193 9.24336 10.499 9.37046C11.2101 10.5484 12.284 12.4348 12.7791 13.8432ZM13.3203 13.3867C14.6454 12.0942 15.1359 10.1495 14.5795 8.38179C14.3651 8.57512 14.1284 8.75011 13.8705 8.90289C13.0819 9.36991 12.2068 9.56265 11.3562 9.50949C11.6281 9.97119 11.9287 10.4987 12.2207 11.0451C12.5969 11.7489 12.9653 12.496 13.2398 13.1807C13.2672 13.2491 13.2941 13.3178 13.3203 13.3867Z" fill="#FAFAFA"/>
<path fill-rule="evenodd" clip-rule="evenodd" d="M7.1602 5.74072C4.97407 7.17867 4.283 10.0961 5.63042 12.3713C6.85847 14.445 9.36833 15.2902 11.5536 14.4957C11.4824 14.4014 11.4125 14.3053 11.344 14.2085C10.9176 13.6052 10.4911 12.8893 10.1057 12.1905C9.33397 10.7915 8.70061 9.41289 8.5288 9.03305L8.2739 8.46951L8.35686 8.42447C8.17335 8.32826 7.90553 8.16513 7.68088 7.95636C7.56153 7.84545 7.42503 7.69491 7.32943 7.50701C7.23026 7.31209 7.15817 7.03912 7.24763 6.73721L7.25304 6.71893L7.27519 6.64417C7.34837 6.35886 7.31675 6.05667 7.1859 5.7926L7.1602 5.74072ZM12.7791 13.8432C12.6535 13.9345 12.5225 14.0208 12.3862 14.1016C12.3177 14.1421 12.2486 14.1809 12.179 14.2177C10.8798 12.5601 9.4089 9.36494 9.13479 8.75894L9.14576 8.75298C9.56087 9.03565 10.0193 9.24336 10.499 9.37046C11.2101 10.5484 12.284 12.4348 12.7791 13.8432ZM13.3203 13.3867C14.6454 12.0942 15.1359 10.1495 14.5795 8.38179C14.3651 8.57512 14.1284 8.75011 13.8705 8.90289C13.0819 9.36991 12.2068 9.56265 11.3562 9.50949C11.6281 9.97119 11.9287 10.4987 12.2207 11.0451C12.5969 11.7489 12.9653 12.496 13.2398 13.1807C13.2672 13.2491 13.2941 13.3178 13.3203 13.3867Z" fill="url(#paint0_radial_2366_10294)"/>
<path fill-rule="evenodd" clip-rule="evenodd" d="M7.91802 6.82281C8.03515 6.37937 7.98751 5.90851 7.78387 5.49753C8.46563 5.68461 8.93036 5.97802 9.1645 6.37871C9.34927 6.70723 9.38956 7.09766 9.27575 7.457L9.24822 7.5499L8.69546 7.84998C8.3902 7.69493 7.77724 7.29796 7.88734 6.92637L7.89275 6.90809L7.91802 6.82281ZM13.0483 15.0767C11.6366 14.1996 9.47513 9.50714 9.1368 8.75917L9.87316 8.35941C10.3176 9.05104 13.0716 13.427 13.0483 15.0767Z" fill="#ED9361"/>
<defs>
<radialGradient id="paint0_radial_2366_10294" cx="0" cy="0" r="1" gradientUnits="userSpaceOnUse" gradientTransform="translate(7.01482 6.17849) rotate(59.1354) scale(10.7112 11.7197)">
<stop offset="0.229242" stop-color="#F29078"/>
<stop offset="1" stop-color="#EB945B"/>
</radialGradient>
</defs>
</svg>
