<svg width="14" height="14" viewBox="0 0 14 14" fill="none" xmlns="http://www.w3.org/2000/svg">
<path fill-rule="evenodd" clip-rule="evenodd" d="M6.99961 13.4C8.69699 13.4 10.3249 12.7257 11.5251 11.5255C12.7253 10.3253 13.3996 8.69739 13.3996 7.00001C13.3996 5.30262 12.7253 3.67476 11.5251 2.47452C10.3249 1.27429 8.69699 0.600006 6.99961 0.600006C5.30222 0.600006 3.67436 1.27429 2.47413 2.47452C1.27389 3.67476 0.599609 5.30262 0.599609 7.00001C0.599609 8.69739 1.27389 10.3253 2.47413 11.5255C3.67436 12.7257 5.30222 13.4 6.99961 13.4ZM7.79961 3.80001C7.79961 3.58783 7.71532 3.38435 7.56529 3.23432C7.41527 3.08429 7.21178 3.00001 6.99961 3.00001C6.78744 3.00001 6.58395 3.08429 6.43392 3.23432C6.28389 3.38435 6.19961 3.58783 6.19961 3.80001V7.00001C6.19965 7.21216 6.28397 7.41561 6.43401 7.56561L8.69641 9.82881C8.77074 9.90313 8.85898 9.96209 8.95609 10.0023C9.05321 10.0425 9.15729 10.0633 9.26241 10.0633C9.36752 10.0633 9.47161 10.0425 9.56873 10.0023C9.66584 9.96209 9.75408 9.90313 9.82841 9.82881C9.90274 9.75448 9.9617 9.66624 10.0019 9.56912C10.0421 9.47201 10.0629 9.36792 10.0629 9.2628C10.0629 9.15769 10.0421 9.0536 10.0019 8.95649C9.9617 8.85937 9.90274 8.77113 9.82841 8.69681L7.79961 6.66881V3.80001Z" fill="#EF784E"/>
</svg>
